<?xml version="1.0" standalone="no"?>
<!DOCTYPE svg PUBLIC "-//W3C//DTD SVG 20010904//EN"
 "http://www.w3.org/TR/2001/REC-SVG-20010904/DTD/svg10.dtd">
<svg version="1.0" xmlns="http://www.w3.org/2000/svg"
 width="16.000000pt" height="16.000000pt" viewBox="0 0 16.000000 16.000000"
 preserveAspectRatio="xMidYMid meet">
<metadata>
Created by potrace 1.11, written by Peter Selinger 2001-2013
</metadata>
<g transform="translate(0.000000,16.000000) scale(0.001563,-0.001563)"
fill="#000000" stroke="none">
<path d="M0 5120 l0 -5120 5120 0 5120 0 0 5120 0 5120 -5120 0 -5120 0 0
-5120z m2338 2918 c418 -713 532 -911 664 -1155 l44 -82 59 112 c96 184 167
306 648 1125 l459 782 184 0 184 0 0 -1660 0 -1660 -196 0 -197 0 7 1098 c3
603 9 1203 12 1332 l6 235 -164 -285 c-91 -157 -271 -469 -400 -695 -130 -225
-294 -511 -365 -635 l-130 -225 -105 -3 -106 -3 -20 33 c-11 18 -251 434 -532
923 l-512 890 6 -240 c3 -132 9 -732 12 -1332 l7 -1093 -197 0 -196 0 0 1660
0 1660 184 0 184 0 460 -782z m3512 -878 l0 -1660 -195 0 -195 0 0 1660 0
1660 195 0 195 0 0 -1660z m3158 1478 l-3 -183 -557 -3 -558 -2 0 -1475 0
-1475 -195 0 -195 0 0 1475 0 1475 -552 2 -553 3 -3 183 -2 182 1310 0 1310 0
-2 -182z m-6131 -3769 c435 -58 819 -330 1061 -752 28 -50 52 -96 52 -103 0
-10 -298 -105 -325 -104 -5 0 -34 38 -64 85 -148 230 -381 401 -646 472 -89
23 -118 26 -260 26 -140 0 -173 -3 -260 -26 -130 -34 -297 -118 -401 -200
-270 -215 -433 -562 -463 -989 -54 -756 344 -1359 962 -1458 157 -26 380 -3
533 53 239 88 464 291 597 538 23 43 47 79 53 79 5 0 81 -23 167 -50 l156 -50
-16 -38 c-172 -413 -513 -739 -905 -866 -159 -52 -224 -61 -418 -61 -194 0
-259 10 -416 60 -478 155 -849 573 -994 1117 -45 173 -61 286 -67 488 -6 214
10 375 57 570 140 572 539 1021 1035 1165 180 52 385 68 562 44z m2664 -4
c411 -72 725 -380 822 -807 l15 -67 -147 -47 c-80 -26 -152 -47 -160 -48 -9
-1 -20 25 -32 79 -11 44 -40 123 -66 175 -39 79 -62 110 -132 180 -146 146
-292 204 -506 203 -388 -3 -646 -237 -623 -566 9 -119 38 -179 132 -273 72
-71 97 -88 206 -141 69 -34 204 -89 300 -122 494 -174 661 -259 826 -425 164
-165 244 -366 244 -616 0 -572 -425 -969 -1040 -970 -464 0 -832 246 -1004
672 -36 89 -92 295 -83 304 4 5 315 104 324 104 2 0 3 -13 3 -28 0 -56 40
-188 84 -277 80 -161 190 -272 341 -345 118 -56 198 -74 345 -74 187 -1 315
36 445 129 278 198 314 635 70 863 -119 112 -232 167 -615 302 -405 142 -557
220 -695 355 -157 153 -225 321 -225 556 0 310 159 591 427 752 95 57 246 113
357 131 109 19 285 19 387 1z m3327 -237 l-3 -183 -782 -3 -783 -2 0 -510 0
-510 630 0 630 0 -2 -172 -3 -173 -627 -3 -628 -2 0 -605 0 -605 795 0 795 0
0 -185 0 -185 -965 0 -965 0 0 1660 0 1660 955 0 955 0 -2 -182z"/>
</g>
</svg>
