<?xml version="1.0" standalone="no"?>
<!DOCTYPE svg PUBLIC "-//W3C//DTD SVG 20010904//EN"
 "http://www.w3.org/TR/2001/REC-SVG-20010904/DTD/svg10.dtd">
<svg version="1.0" xmlns="http://www.w3.org/2000/svg"
 width="670.000000pt" height="670.000000pt" viewBox="0 0 670.000000 670.000000"
 preserveAspectRatio="xMidYMid meet">
<metadata>
Created by potrace 1.11, written by Peter Selinger 2001-2013
</metadata>
<g transform="translate(0.000000,670.000000) scale(0.100000,-0.100000)"
fill="#000000" stroke="none">
<path d="M0 3350 l0 -3350 3350 0 3350 0 0 3350 0 3350 -3350 0 -3350 0 0
-3350z m4307 807 c109 -40 173 -133 181 -263 l5 -74 -92 0 -91 0 0 50 c0 61
-16 97 -51 116 -59 30 -122 6 -138 -54 -7 -22 -11 -172 -11 -375 0 -360 3
-382 49 -407 35 -18 88 -12 118 14 24 21 29 34 33 88 l5 63 85 0 85 0 -1 -70
c-1 -86 -26 -147 -84 -203 -59 -58 -112 -76 -207 -70 -112 7 -180 46 -226 133
-21 39 -22 52 -25 447 -3 395 -2 409 18 456 43 100 140 161 255 161 33 0 74
-6 92 -12z m844 -16 c98 -50 147 -129 156 -247 l6 -74 -92 0 -91 0 0 48 c0 87
-54 140 -129 128 -71 -11 -109 -91 -95 -197 9 -64 28 -80 169 -139 178 -74
215 -121 231 -285 7 -82 -9 -200 -35 -260 -25 -58 -84 -111 -143 -131 -69 -23
-197 -16 -254 14 -90 46 -154 156 -154 263 l0 49 90 0 90 0 0 -45 c0 -84 38
-125 115 -125 92 0 115 37 115 180 0 97 -1 103 -27 129 -16 15 -76 46 -135 70
-185 74 -232 138 -233 316 0 130 20 191 85 256 60 60 118 80 216 75 50 -2 85
-10 115 -25z m-4102 -293 c58 -169 109 -304 112 -300 3 4 52 143 109 310 l103
302 84 0 83 0 0 -590 0 -590 -85 0 -85 0 0 358 0 357 -83 -250 -83 -250 -46
-3 -46 -3 -80 243 -80 243 -1 -347 -1 -348 -90 0 -90 0 0 590 0 591 86 -3 87
-3 106 -307z m961 -278 l0 -590 -90 0 -90 0 0 590 0 590 90 0 90 0 0 -590z
m770 510 l0 -80 -95 0 -95 0 0 -510 0 -510 -90 0 -90 0 0 510 0 510 -95 0 -95
0 0 80 0 80 280 0 280 0 0 -80z m3290 0 l0 -80 -165 0 -165 0 0 -170 0 -169
143 -3 142 -3 3 -82 3 -83 -146 0 -145 0 0 -170 0 -170 165 0 165 0 0 -85 0
-85 -255 0 -255 0 0 590 0 590 255 0 255 0 0 -80z m-2624 -244 c110 -50 169
-142 169 -266 0 -123 -56 -214 -163 -267 -76 -37 -183 -40 -253 -5 -181 89
-230 317 -99 465 89 101 221 129 346 73z m-2317 -1192 c6 -14 11 -62 11 -108
0 -99 -20 -136 -72 -136 -58 0 -68 20 -68 140 0 111 6 128 50 142 25 8 67 -12
79 -38z m845 35 c14 -7 30 -25 36 -42 13 -39 14 -37 -14 -37 -16 0 -26 7 -29
21 -8 30 -41 21 -45 -12 -3 -21 4 -28 37 -44 85 -38 74 -165 -14 -165 -34 0
-58 20 -69 58 -6 19 -4 22 17 22 17 0 26 -7 30 -21 9 -33 41 -20 45 18 3 27
-2 34 -40 55 -40 22 -43 26 -46 70 -3 40 1 49 24 67 31 24 35 25 68 10z m219
-21 c14 -16 17 -39 17 -119 0 -112 -14 -139 -70 -139 -56 0 -70 27 -70 136 0
52 5 104 11 115 22 42 79 45 112 7z m606 -20 c14 -40 15 -38 -13 -38 -15 0
-26 7 -29 20 -3 11 -12 20 -21 20 -15 0 -16 -13 -14 -97 2 -69 7 -98 16 -101
7 -2 16 5 19 17 4 14 13 21 30 21 21 0 23 -3 17 -22 -17 -59 -87 -80 -118 -36
-19 27 -23 197 -5 229 25 48 100 40 118 -13z m654 24 c24 -21 23 -62 -3 -62
-11 0 -20 7 -20 15 0 21 -30 31 -41 14 -15 -24 -11 -165 6 -179 16 -14 35 -6
35 16 0 8 9 14 20 14 14 0 20 -7 20 -22 0 -51 -72 -78 -112 -41 -15 14 -18 32
-18 123 0 89 3 109 18 122 33 29 60 29 95 0z m1132 -5 c23 -33 19 -57 -10 -57
-18 0 -25 5 -25 20 0 13 -7 20 -20 20 -20 0 -21 -5 -18 -97 3 -84 6 -98 21
-101 12 -2 17 3 17 17 0 16 6 21 25 21 18 0 25 -5 25 -20 0 -29 -35 -60 -67
-60 -56 0 -73 32 -73 133 0 93 13 133 48 145 35 11 59 5 77 -21z m488 5 c25
-22 25 -216 0 -244 -22 -25 -75 -23 -99 3 -24 26 -33 173 -14 219 19 47 72 57
113 22z m-3761 1 c12 -11 18 -30 18 -62 0 -59 -21 -91 -61 -91 -29 0 -29 -1
-29 -55 0 -48 -2 -55 -20 -55 -19 0 -20 7 -20 140 l0 140 47 0 c29 0 53 -6 65
-17z m206 0 c-2 -13 -14 -19 -41 -21 -36 -3 -37 -4 -37 -43 0 -38 1 -39 36
-39 28 0 35 -3 32 -17 -2 -12 -14 -19 -36 -21 -30 -3 -32 -6 -32 -43 0 -39 0
-39 40 -39 33 0 40 -3 40 -20 0 -18 -7 -20 -65 -20 l-65 0 0 140 0 140 66 0
c57 0 65 -2 62 -17z m121 -63 l26 -74 3 77 c3 69 5 77 22 77 19 0 20 -8 20
-140 0 -132 -1 -140 -19 -140 -15 0 -25 15 -40 58 -38 102 -40 103 -40 20 -1
-71 -3 -78 -21 -78 -19 0 -20 7 -20 141 0 138 0 140 21 137 17 -2 28 -19 48
-78z m683 -37 c2 -97 6 -118 18 -118 12 0 16 21 18 118 l3 117 24 0 25 0 0
-111 c0 -137 -13 -169 -71 -169 -51 0 -64 30 -67 161 l-4 119 26 0 25 0 3
-117z m270 100 c22 -20 24 -89 3 -120 -13 -19 -13 -27 5 -79 24 -70 25 -64 -3
-64 -20 0 -26 9 -40 60 -10 33 -22 60 -27 60 -6 0 -10 -27 -10 -60 0 -57 -1
-60 -25 -60 l-25 0 0 140 0 140 52 0 c34 0 58 -6 70 -17z m398 -3 c0 -17 -7
-20 -40 -20 l-40 0 0 -40 c0 -39 1 -40 35 -40 28 0 35 -4 35 -20 0 -16 -7 -20
-35 -20 -34 0 -35 -1 -35 -40 l0 -40 40 0 c33 0 40 -3 40 -20 0 -18 -7 -20
-60 -20 l-60 0 0 140 0 140 60 0 c53 0 60 -2 60 -20z m244 3 c8 -28 56 -245
56 -254 0 -5 -9 -9 -20 -9 -15 0 -22 9 -27 31 -5 25 -10 30 -32 27 -20 -2 -27
-9 -29 -30 -3 -22 -8 -28 -28 -28 -19 0 -24 4 -20 18 2 9 17 72 32 140 22 100
31 122 45 122 10 0 20 -8 23 -17z m410 -110 c16 -71 31 -134 33 -140 3 -8 -4
-13 -20 -13 -21 0 -26 6 -29 28 -2 21 -9 28 -30 30 -22 3 -27 -2 -33 -27 -5
-22 -13 -31 -26 -31 -24 0 -24 -2 7 138 32 147 30 142 52 142 15 0 23 -21 46
-127z m200 105 c12 -17 16 -48 16 -120 0 -118 -12 -138 -85 -138 l-45 0 0 140
0 140 49 0 c40 0 53 -4 65 -22z m206 2 c0 -17 -7 -20 -40 -20 l-40 0 0 -40 c0
-39 1 -40 35 -40 28 0 35 -4 35 -20 0 -16 -7 -20 -35 -20 -34 0 -35 -1 -35
-40 l0 -40 40 0 c33 0 40 -3 40 -20 0 -18 -7 -20 -60 -20 l-60 0 0 140 0 140
60 0 c53 0 60 -2 60 -20z m123 -52 l24 -73 23 73 c21 62 27 72 47 72 23 0 23
-1 23 -140 l0 -140 -25 0 c-24 0 -25 2 -26 68 l-1 67 -15 -42 c-8 -24 -20 -43
-27 -43 -7 0 -20 21 -28 48 l-16 47 -1 -72 c-1 -71 -2 -73 -26 -73 l-25 0 0
140 0 140 24 0 c21 0 27 -9 49 -72z m227 -68 c0 -133 -1 -140 -20 -140 -19 0
-20 7 -20 140 0 133 1 140 20 140 19 0 20 -7 20 -140z m480 120 c43 -43 11
-150 -46 -150 -22 0 -24 -3 -24 -55 0 -52 -1 -55 -25 -55 l-25 0 0 140 0 140
50 0 c37 0 55 -5 70 -20z m387 12 c33 -21 39 -107 8 -132 -11 -9 -10 -20 6
-67 24 -70 24 -75 -2 -71 -17 2 -26 16 -38 57 -23 77 -41 78 -41 2 0 -54 -2
-61 -20 -61 -19 0 -20 7 -20 140 l0 140 48 0 c26 0 52 -4 59 -8z m203 -12 c0
-15 -7 -20 -25 -20 l-25 0 0 -120 c0 -113 -1 -120 -20 -120 -19 0 -20 7 -20
120 l0 120 -25 0 c-18 0 -25 5 -25 20 0 18 7 20 70 20 63 0 70 -2 70 -20z
m132 -105 c33 -146 33 -155 9 -155 -13 0 -21 9 -26 30 -5 23 -12 30 -31 30
-19 0 -26 -6 -30 -30 -5 -23 -12 -30 -29 -30 l-23 0 19 83 c10 45 24 108 31
140 10 49 15 57 32 55 17 -3 25 -21 48 -123z m128 5 l0 -120 40 0 c33 0 40 -3
40 -20 0 -18 -7 -20 -65 -20 l-65 0 0 140 0 140 25 0 25 0 0 -120z"/>
<path d="M1047 2634 c-10 -10 -8 -166 2 -183 5 -8 16 -11 25 -8 24 9 19 190
-4 195 -9 1 -19 0 -23 -4z"/>
<path d="M2120 2546 c0 -96 8 -118 35 -96 11 9 15 34 15 85 0 86 -6 105 -31
105 -17 0 -19 -8 -19 -94z"/>
<path d="M5005 2627 c-3 -7 -5 -52 -3 -98 3 -76 5 -84 23 -84 19 0 20 7 20 95
0 82 -2 95 -18 98 -9 2 -19 -3 -22 -11z"/>
<path d="M1240 2595 c0 -42 2 -46 23 -43 19 3 22 9 22 43 0 34 -3 40 -22 43
-21 3 -23 -1 -23 -43z"/>
<path d="M2520 2600 c0 -37 2 -41 23 -38 18 2 22 9 22 38 0 29 -4 36 -22 38
-21 3 -23 -1 -23 -38z"/>
<path d="M3205 2554 c-4 -16 -8 -35 -11 -41 -2 -7 5 -13 16 -13 16 0 18 5 13
38 -8 48 -11 51 -18 16z"/>
<path d="M3591 2565 c-1 -11 -4 -30 -7 -42 -5 -17 -2 -23 10 -23 18 0 21 31 6
65 l-9 20 0 -20z"/>
<path d="M3770 2540 c0 -91 2 -100 19 -100 25 0 31 19 31 100 0 81 -6 100 -31
100 -17 0 -19 -9 -19 -100z"/>
<path d="M4810 2595 c0 -38 3 -45 19 -45 23 0 35 31 27 66 -4 15 -14 24 -26
24 -17 0 -20 -7 -20 -45z"/>
<path d="M5200 2600 c0 -37 2 -41 23 -38 18 2 22 9 22 38 0 29 -4 36 -22 38
-21 3 -23 -1 -23 -38z"/>
<path d="M5547 2560 c-11 -40 -8 -60 8 -60 16 0 18 19 6 60 l-7 25 -7 -25z"/>
</g>
</svg>
